<?xml version="1.0" encoding="UTF-8" standalone="no"?>
<!DOCTYPE svg PUBLIC "-//W3C//DTD SVG 1.1//EN"
 "http://www.w3.org/Graphics/SVG/1.1/DTD/svg11.dtd">
<!-- Generated by graphviz version 15.1.0 (20260618.0150)
 -->
<!-- Title: ER Pages: 1 -->
<svg width="1182pt" height="684pt"
 viewBox="0.00 0.00 1182.00 684.00" xmlns="http://www.w3.org/2000/svg" xmlns:xlink="http://www.w3.org/1999/xlink">
<g id="graph0" class="graph" transform="scale(1 1) rotate(0) translate(4 680.38)">
<title>ER</title>
<polygon fill="white" stroke="none" points="-4,4 -4,-680.38 1177.75,-680.38 1177.75,4 -4,4"/>
<!-- users -->
<g id="node1" class="node">
<title>users</title>
<polygon fill="white" stroke="none" points="8,-261.12 8,-417.12 193,-417.12 193,-261.12 8,-261.12"/>
<polygon fill="#2775ff" stroke="none" points="8,-391.12 8,-417.12 193,-417.12 193,-391.12 8,-391.12"/>
<polygon fill="none" stroke="black" points="8,-391.12 8,-417.12 193,-417.12 193,-391.12 8,-391.12"/>
<text xml:space="preserve" text-anchor="start" x="85.88" y="-400.68" font-family="Helvetica,sans-Serif" font-weight="bold" font-size="11.00" fill="white">users</text>
<polygon fill="none" stroke="black" points="8,-365.12 8,-391.12 193,-391.12 193,-365.12 8,-365.12"/>
<text xml:space="preserve" text-anchor="start" x="15" y="-374.68" font-family="Helvetica,sans-Serif" font-weight="bold" font-size="11.00">id</text>
<text xml:space="preserve" text-anchor="start" x="24.75" y="-374.68" font-family="Helvetica,sans-Serif" font-size="11.00"> BIGSERIAL PK</text>
<polygon fill="none" stroke="black" points="8,-339.12 8,-365.12 193,-365.12 193,-339.12 8,-339.12"/>
<text xml:space="preserve" text-anchor="start" x="15" y="-349.12" font-family="Helvetica,sans-Serif" font-size="11.00">username VARCHAR(64) UNIQUE</text>
<polygon fill="none" stroke="black" points="8,-313.12 8,-339.12 193,-339.12 193,-313.12 8,-313.12"/>
<text xml:space="preserve" text-anchor="start" x="15" y="-323.12" font-family="Helvetica,sans-Serif" font-size="11.00">password_hash VARCHAR(255)</text>
<polygon fill="none" stroke="black" points="8,-287.12 8,-313.12 193,-313.12 193,-287.12 8,-287.12"/>
<text xml:space="preserve" text-anchor="start" x="15" y="-297.12" font-family="Helvetica,sans-Serif" font-size="11.00">display_name VARCHAR(128)</text>
<polygon fill="none" stroke="black" points="8,-261.12 8,-287.12 193,-287.12 193,-261.12 8,-261.12"/>
<text xml:space="preserve" text-anchor="start" x="15" y="-271.12" font-family="Helvetica,sans-Serif" font-size="11.00">created_at TIMESTAMPTZ</text>
</g>
<!-- chats -->
<g id="node2" class="node">
<title>chats</title>
<polygon fill="white" stroke="none" points="337.25,-397 337.25,-555.25 516.25,-555.25 516.25,-397 337.25,-397"/>
<polygon fill="#2775ff" stroke="none" points="337.25,-529.25 337.25,-555.25 516.25,-555.25 516.25,-529.25 337.25,-529.25"/>
<polygon fill="none" stroke="black" points="337.25,-529.25 337.25,-555.25 516.25,-555.25 516.25,-529.25 337.25,-529.25"/>
<text xml:space="preserve" text-anchor="start" x="412.5" y="-538.8" font-family="Helvetica,sans-Serif" font-weight="bold" font-size="11.00" fill="white">chats</text>
<polygon fill="none" stroke="black" points="337.25,-503.25 337.25,-529.25 516.25,-529.25 516.25,-503.25 337.25,-503.25"/>
<text xml:space="preserve" text-anchor="start" x="344.25" y="-512.8" font-family="Helvetica,sans-Serif" font-weight="bold" font-size="11.00">id</text>
<text xml:space="preserve" text-anchor="start" x="354" y="-512.8" font-family="Helvetica,sans-Serif" font-size="11.00"> BIGSERIAL PK</text>
<polygon fill="none" stroke="black" points="337.25,-477.25 337.25,-503.25 516.25,-503.25 516.25,-477.25 337.25,-477.25"/>
<text xml:space="preserve" text-anchor="start" x="344.25" y="-487.25" font-family="Helvetica,sans-Serif" font-size="11.00">type VARCHAR(16) (direct|group)</text>
<polygon fill="none" stroke="black" points="337.25,-451.25 337.25,-477.25 516.25,-477.25 516.25,-451.25 337.25,-451.25"/>
<text xml:space="preserve" text-anchor="start" x="344.25" y="-461.25" font-family="Helvetica,sans-Serif" font-size="11.00">title VARCHAR(128)</text>
<polygon fill="none" stroke="black" points="337.25,-423 337.25,-451.25 516.25,-451.25 516.25,-423 337.25,-423"/>
<text xml:space="preserve" text-anchor="start" x="344.25" y="-434.8" font-family="Helvetica,sans-Serif" font-style="italic" font-size="11.00">created_by</text>
<text xml:space="preserve" text-anchor="start" x="397.5" y="-434.8" font-family="Helvetica,sans-Serif" font-size="11.00"> BIGINT FK → users.id</text>
<polygon fill="none" stroke="black" points="337.25,-397 337.25,-423 516.25,-423 516.25,-397 337.25,-397"/>
<text xml:space="preserve" text-anchor="start" x="344.25" y="-407" font-family="Helvetica,sans-Serif" font-size="11.00">created_at TIMESTAMPTZ</text>
</g>
<!-- users&#45;&gt;chats -->
<g id="edge1" class="edge">
<title>users&#45;&gt;chats</title>
<path fill="none" stroke="#4b5563" d="M200.6,-407.06C200.6,-407.06 318.91,-407.06 318.91,-407.06"/>
<polygon fill="#4b5563" stroke="#4b5563" points="319.02,-407.06 329.02,-411.56 324.36,-407.06 328.69,-407.06 328.69,-407.06 328.69,-407.06 324.36,-407.06 329.02,-402.56 319.02,-407.06"/>
<text xml:space="preserve" text-anchor="middle" x="265.12" y="-444.88" font-family="Helvetica,sans-Serif" font-size="10.00">1:N создаёт</text>
</g>
<!-- chat_members -->
<g id="node3" class="node">
<title>chat_members</title>
<polygon fill="white" stroke="none" points="620,-299.88 620,-434.38 833.5,-434.38 833.5,-299.88 620,-299.88"/>
<polygon fill="#10b981" stroke="none" points="620,-408.38 620,-434.38 833.5,-434.38 833.5,-408.38 620,-408.38"/>
<polygon fill="none" stroke="black" points="620,-408.38 620,-434.38 833.5,-434.38 833.5,-408.38 620,-408.38"/>
<text xml:space="preserve" text-anchor="start" x="688.12" y="-417.93" font-family="Helvetica,sans-Serif" font-weight="bold" font-size="11.00" fill="white">chat_members</text>
<polygon fill="none" stroke="black" points="620,-380.12 620,-408.38 833.5,-408.38 833.5,-380.12 620,-380.12"/>
<text xml:space="preserve" text-anchor="start" x="627" y="-391.93" font-family="Helvetica,sans-Serif" font-weight="bold" font-style="italic" font-size="11.00">chat_id</text>
<text xml:space="preserve" text-anchor="start" x="665.25" y="-391.93" font-family="Helvetica,sans-Serif" font-size="11.00"> BIGINT PK/FK → chats.id</text>
<polygon fill="none" stroke="black" points="620,-351.88 620,-380.12 833.5,-380.12 833.5,-351.88 620,-351.88"/>
<text xml:space="preserve" text-anchor="start" x="627" y="-363.68" font-family="Helvetica,sans-Serif" font-weight="bold" font-style="italic" font-size="11.00">user_id</text>
<text xml:space="preserve" text-anchor="start" x="666" y="-363.68" font-family="Helvetica,sans-Serif" font-size="11.00"> BIGINT PK/FK → users.id</text>
<polygon fill="none" stroke="black" points="620,-325.88 620,-351.88 833.5,-351.88 833.5,-325.88 620,-325.88"/>
<text xml:space="preserve" text-anchor="start" x="627" y="-335.88" font-family="Helvetica,sans-Serif" font-size="11.00">role VARCHAR(16) (reader|writer|owner)</text>
<polygon fill="none" stroke="black" points="620,-299.88 620,-325.88 833.5,-325.88 833.5,-299.88 620,-299.88"/>
<text xml:space="preserve" text-anchor="start" x="627" y="-309.88" font-family="Helvetica,sans-Serif" font-size="11.00">joined_at TIMESTAMPTZ</text>
</g>
<!-- users&#45;&gt;chat_members -->
<g id="edge2" class="edge">
<title>users&#45;&gt;chat_members</title>
<path fill="none" stroke="#4b5563" d="M200.77,-344.44C200.77,-344.44 601.74,-344.44 601.74,-344.44"/>
<polygon fill="#4b5563" stroke="#4b5563" points="601.85,-344.44 611.85,-348.94 607.18,-344.44 611.51,-344.44 611.51,-344.44 611.51,-344.44 607.18,-344.44 611.85,-339.94 601.85,-344.44"/>
<text xml:space="preserve" text-anchor="middle" x="426.75" y="-340.88" font-family="Helvetica,sans-Serif" font-size="10.00">1:N</text>
</g>
<!-- messages -->
<g id="node4" class="node">
<title>messages</title>
<polygon fill="white" stroke="none" points="640.25,-485.88 640.25,-672.38 813.25,-672.38 813.25,-485.88 640.25,-485.88"/>
<polygon fill="#2775ff" stroke="none" points="640.25,-646.38 640.25,-672.38 813.25,-672.38 813.25,-646.38 640.25,-646.38"/>
<polygon fill="none" stroke="black" points="640.25,-646.38 640.25,-672.38 813.25,-672.38 813.25,-646.38 640.25,-646.38"/>
<text xml:space="preserve" text-anchor="start" x="700.5" y="-655.92" font-family="Helvetica,sans-Serif" font-weight="bold" font-size="11.00" fill="white">messages</text>
<polygon fill="none" stroke="black" points="640.25,-620.38 640.25,-646.38 813.25,-646.38 813.25,-620.38 640.25,-620.38"/>
<text xml:space="preserve" text-anchor="start" x="647.25" y="-629.92" font-family="Helvetica,sans-Serif" font-weight="bold" font-size="11.00">id</text>
<text xml:space="preserve" text-anchor="start" x="657" y="-629.92" font-family="Helvetica,sans-Serif" font-size="11.00"> BIGSERIAL PK</text>
<polygon fill="none" stroke="black" points="640.25,-592.12 640.25,-620.38 813.25,-620.38 813.25,-592.12 640.25,-592.12"/>
<text xml:space="preserve" text-anchor="start" x="647.25" y="-603.92" font-family="Helvetica,sans-Serif" font-style="italic" font-size="11.00">chat_id</text>
<text xml:space="preserve" text-anchor="start" x="681.75" y="-603.92" font-family="Helvetica,sans-Serif" font-size="11.00"> BIGINT FK → chats.id</text>
<polygon fill="none" stroke="black" points="640.25,-563.88 640.25,-592.12 813.25,-592.12 813.25,-563.88 640.25,-563.88"/>
<text xml:space="preserve" text-anchor="start" x="647.25" y="-575.67" font-family="Helvetica,sans-Serif" font-style="italic" font-size="11.00">sender_id</text>
<text xml:space="preserve" text-anchor="start" x="694.5" y="-575.67" font-family="Helvetica,sans-Serif" font-size="11.00"> BIGINT FK → users.id</text>
<polygon fill="none" stroke="black" points="640.25,-537.88 640.25,-563.88 813.25,-563.88 813.25,-537.88 640.25,-537.88"/>
<text xml:space="preserve" text-anchor="start" x="647.25" y="-547.88" font-family="Helvetica,sans-Serif" font-size="11.00">text TEXT (1..4000)</text>
<polygon fill="none" stroke="black" points="640.25,-511.88 640.25,-537.88 813.25,-537.88 813.25,-511.88 640.25,-511.88"/>
<text xml:space="preserve" text-anchor="start" x="647.25" y="-521.88" font-family="Helvetica,sans-Serif" font-size="11.00">client_msg_id UUID</text>
<polygon fill="none" stroke="black" points="640.25,-485.88 640.25,-511.88 813.25,-511.88 813.25,-485.88 640.25,-485.88"/>
<text xml:space="preserve" text-anchor="start" x="647.25" y="-495.88" font-family="Helvetica,sans-Serif" font-size="11.00">created_at TIMESTAMPTZ</text>
</g>
<!-- users&#45;&gt;messages -->
<g id="edge5" class="edge">
<title>users&#45;&gt;messages</title>
<path fill="none" stroke="#4b5563" d="M100.75,-420.86C100.75,-503.09 100.75,-617.81 100.75,-617.81 100.75,-617.81 621.91,-617.81 621.91,-617.81"/>
<polygon fill="#4b5563" stroke="#4b5563" points="622.02,-617.81 632.02,-622.31 627.35,-617.81 631.68,-617.81 631.68,-617.81 631.68,-617.81 627.35,-617.81 632.02,-613.31 622.02,-617.81"/>
<text xml:space="preserve" text-anchor="middle" x="426.75" y="-646.88" font-family="Helvetica,sans-Serif" font-size="10.00">1:N автор</text>
</g>
<!-- message_status -->
<g id="node5" class="node">
<title>message_status</title>
<polygon fill="white" stroke="none" points="937.25,-198.88 937.25,-333.38 1165.75,-333.38 1165.75,-198.88 937.25,-198.88"/>
<polygon fill="#10b981" stroke="none" points="937.25,-307.38 937.25,-333.38 1165.75,-333.38 1165.75,-307.38 937.25,-307.38"/>
<polygon fill="none" stroke="black" points="937.25,-307.38 937.25,-333.38 1165.75,-333.38 1165.75,-307.38 937.25,-307.38"/>
<text xml:space="preserve" text-anchor="start" x="1009.12" y="-316.93" font-family="Helvetica,sans-Serif" font-weight="bold" font-size="11.00" fill="white">message_status</text>
<polygon fill="none" stroke="black" points="937.25,-279.12 937.25,-307.38 1165.75,-307.38 1165.75,-279.12 937.25,-279.12"/>
<text xml:space="preserve" text-anchor="start" x="944.25" y="-290.93" font-family="Helvetica,sans-Serif" font-weight="bold" font-style="italic" font-size="11.00">message_id</text>
<text xml:space="preserve" text-anchor="start" x="1006.5" y="-290.93" font-family="Helvetica,sans-Serif" font-size="11.00"> BIGINT PK/FK → messages.id</text>
<polygon fill="none" stroke="black" points="937.25,-250.88 937.25,-279.12 1165.75,-279.12 1165.75,-250.88 937.25,-250.88"/>
<text xml:space="preserve" text-anchor="start" x="944.25" y="-262.68" font-family="Helvetica,sans-Serif" font-weight="bold" font-style="italic" font-size="11.00">user_id</text>
<text xml:space="preserve" text-anchor="start" x="983.25" y="-262.68" font-family="Helvetica,sans-Serif" font-size="11.00"> BIGINT PK/FK → users.id</text>
<polygon fill="none" stroke="black" points="937.25,-224.88 937.25,-250.88 1165.75,-250.88 1165.75,-224.88 937.25,-224.88"/>
<text xml:space="preserve" text-anchor="start" x="944.25" y="-234.88" font-family="Helvetica,sans-Serif" font-size="11.00">status VARCHAR (sent|delivered|read)</text>
<polygon fill="none" stroke="black" points="937.25,-198.88 937.25,-224.88 1165.75,-224.88 1165.75,-198.88 937.25,-198.88"/>
<text xml:space="preserve" text-anchor="start" x="944.25" y="-208.88" font-family="Helvetica,sans-Serif" font-size="11.00">updated_at TIMESTAMPTZ</text>
</g>
<!-- users&#45;&gt;message_status -->
<g id="edge7" class="edge">
<title>users&#45;&gt;message_status</title>
<path fill="none" stroke="#4b5563" d="M200.92,-282.96C200.92,-282.96 919.14,-282.96 919.14,-282.96"/>
<polygon fill="#4b5563" stroke="#4b5563" points="919.25,-282.96 929.25,-287.46 924.58,-282.96 928.91,-282.96 928.91,-282.96 928.91,-282.96 924.58,-282.96 929.25,-278.46 919.25,-282.96"/>
<text xml:space="preserve" text-anchor="middle" x="568.12" y="-232.88" font-family="Helvetica,sans-Serif" font-size="10.00">1:N</text>
</g>
<!-- audit_log -->
<g id="node6" class="node">
<title>audit_log</title>
<polygon fill="white" stroke="none" points="346.25,-4 346.25,-162.25 507.25,-162.25 507.25,-4 346.25,-4"/>
<polygon fill="#6b7280" stroke="none" points="346.25,-136.25 346.25,-162.25 507.25,-162.25 507.25,-136.25 346.25,-136.25"/>
<polygon fill="none" stroke="black" points="346.25,-136.25 346.25,-162.25 507.25,-162.25 507.25,-136.25 346.25,-136.25"/>
<text xml:space="preserve" text-anchor="start" x="402.38" y="-145.8" font-family="Helvetica,sans-Serif" font-weight="bold" font-size="11.00" fill="white">audit_log</text>
<polygon fill="none" stroke="black" points="346.25,-110.25 346.25,-136.25 507.25,-136.25 507.25,-110.25 346.25,-110.25"/>
<text xml:space="preserve" text-anchor="start" x="353.25" y="-119.8" font-family="Helvetica,sans-Serif" font-weight="bold" font-size="11.00">id</text>
<text xml:space="preserve" text-anchor="start" x="363" y="-119.8" font-family="Helvetica,sans-Serif" font-size="11.00"> BIGSERIAL PK</text>
<polygon fill="none" stroke="black" points="346.25,-82 346.25,-110.25 507.25,-110.25 507.25,-82 346.25,-82"/>
<text xml:space="preserve" text-anchor="start" x="353.25" y="-93.8" font-family="Helvetica,sans-Serif" font-style="italic" font-size="11.00">user_id</text>
<text xml:space="preserve" text-anchor="start" x="388.5" y="-93.8" font-family="Helvetica,sans-Serif" font-size="11.00"> BIGINT FK → users.id</text>
<polygon fill="none" stroke="black" points="346.25,-56 346.25,-82 507.25,-82 507.25,-56 346.25,-56"/>
<text xml:space="preserve" text-anchor="start" x="353.25" y="-66" font-family="Helvetica,sans-Serif" font-size="11.00">action VARCHAR(64)</text>
<polygon fill="none" stroke="black" points="346.25,-30 346.25,-56 507.25,-56 507.25,-30 346.25,-30"/>
<text xml:space="preserve" text-anchor="start" x="353.25" y="-40" font-family="Helvetica,sans-Serif" font-size="11.00">payload JSONB</text>
<polygon fill="none" stroke="black" points="346.25,-4 346.25,-30 507.25,-30 507.25,-4 346.25,-4"/>
<text xml:space="preserve" text-anchor="start" x="353.25" y="-14" font-family="Helvetica,sans-Serif" font-size="11.00">created_at TIMESTAMPTZ</text>
</g>
<!-- users&#45;&gt;audit_log -->
<g id="edge8" class="edge">
<title>users&#45;&gt;audit_log</title>
<path fill="none" stroke="#4b5563" d="M200.6,-270.04C296.51,-270.04 426.75,-270.04 426.75,-270.04 426.75,-270.04 426.75,-176.64 426.75,-176.64"/>
<polygon fill="#4b5563" stroke="#4b5563" points="426.75,-176.53 431.25,-166.53 426.75,-171.2 426.75,-166.87 426.75,-166.87 426.75,-166.87 426.75,-171.2 422.25,-166.53 426.75,-176.53"/>
<text xml:space="preserve" text-anchor="middle" x="265.12" y="-84.88" font-family="Helvetica,sans-Serif" font-size="10.00">1:N</text>
</g>
<!-- chats&#45;&gt;chat_members -->
<g id="edge3" class="edge">
<title>chats&#45;&gt;chat_members</title>
<path fill="none" stroke="#4b5563" d="M524.15,-415.69C524.15,-415.69 601.64,-415.69 601.64,-415.69"/>
<polygon fill="#4b5563" stroke="#4b5563" points="601.75,-415.69 611.75,-420.19 607.08,-415.69 611.41,-415.69 611.41,-415.69 611.41,-415.69 607.08,-415.69 611.75,-411.19 601.75,-415.69"/>
<text xml:space="preserve" text-anchor="middle" x="568.12" y="-445.88" font-family="Helvetica,sans-Serif" font-size="10.00">1:N</text>
</g>
<!-- chats&#45;&gt;messages -->
<g id="edge4" class="edge">
<title>chats&#45;&gt;messages</title>
<path fill="none" stroke="#4b5563" d="M524.15,-520.56C524.15,-520.56 621.95,-520.56 621.95,-520.56"/>
<polygon fill="#4b5563" stroke="#4b5563" points="622.06,-520.56 632.06,-525.06 627.39,-520.56 631.72,-520.56 631.72,-520.56 631.72,-520.56 627.39,-520.56 632.06,-516.06 622.06,-520.56"/>
<text xml:space="preserve" text-anchor="middle" x="568.12" y="-508.88" font-family="Helvetica,sans-Serif" font-size="10.00">1:N</text>
</g>
<!-- messages&#45;&gt;message_status -->
<g id="edge6" class="edge">
<title>messages&#45;&gt;message_status</title>
<path fill="none" stroke="#4b5563" d="M821.19,-579.12C917.15,-579.12 1051.75,-579.12 1051.75,-579.12 1051.75,-579.12 1051.75,-347.59 1051.75,-347.59"/>
<polygon fill="#4b5563" stroke="#4b5563" points="1051.75,-347.48 1056.25,-337.48 1051.75,-342.15 1051.75,-337.82 1051.75,-337.82 1051.75,-337.82 1051.75,-342.15 1047.25,-337.48 1051.75,-347.48"/>
<text xml:space="preserve" text-anchor="middle" x="885.38" y="-441.88" font-family="Helvetica,sans-Serif" font-size="10.00">1:N</text>
</g>
</g>
</svg>
